<svg class="railroad-diagram" height="92" viewBox="0 0 293.0 92" width="293.0" xmlns="http://www.w3.org/2000/svg" xmlns:xlink="http://www.w3.org/1999/xlink">
<g transform="translate(.5 .5)">
<g>
<path d="M20 21v20m10 -20v20m-10 -10h20" /></g><path d="M40 31h10" /><g>
<path d="M50 31h0.0" /><path d="M243.0 31h0.0" /><path d="M50.0 31h10" /><g class="terminal item">
<path d="M60.0 31h0.0" /><path d="M233.0 31h0.0" /><rect height="22" rx="10" ry="10" width="173" x="60" y="20"></rect><text x="146.5" y="35">Generic Expression</text></g><path d="M233.0 31h10" /><path d="M60.0 31a10 10 0 0 0 -10 10v10a10 10 0 0 0 10 10" /><g class="terminal separator">
<path d="M60.0 61h72.25" /><path d="M160.75 61h72.25" /><rect height="22" rx="10" ry="10" width="28.5" x="132.25" y="50"></rect><text x="146.5" y="65">,</text></g><path d="M233.0 61a10 10 0 0 0 10 -10v-10a10 10 0 0 0 -10 -10" /></g><path d="M243.0 31h10" /><path d="M 253.0 31 h 20 m -10 -10 v 20 m 10 -20 v 20"></path></g><style>/* <![CDATA[ */
	svg.railroad-diagram {
		background-color:hsl(30,20%,95%);
	}
	svg.railroad-diagram path {
		stroke-width:3;
		stroke:black;
		fill:rgba(0,0,0,0);
	}
	svg.railroad-diagram text {
		font:bold 14px monospace;
		text-anchor:middle;
	}
	svg.railroad-diagram text.label{
		text-anchor:start;
	}
	svg.railroad-diagram text.comment{
		font:italic 12px monospace;
	}
	svg.railroad-diagram rect{
		stroke-width:3;
		stroke:black;
		fill:hsl(120,100%,90%);
	}
	svg.railroad-diagram rect.group-box {
		stroke: gray;
		stroke-dasharray: 10 5;
		fill: none;
	}
        svg.railroad-diagram .identifier > rect {
          fill: hsl(210, 80%, 85%);
        }
        svg.railroad-diagram .literal > rect {
          fill: hsl(60, 80%, 85%);
        }
        svg.railroad-diagram .operator > rect {
          fill: hsl(300, 60%, 85%);
        }
        svg.railroad-diagram .separator > rect {
          fill: hsl(30, 70%, 85%);
        }
        svg.railroad-diagram .item > rect {
          fill: hsl(120, 60%, 85%);
        }

/* ]]> */
</style></svg>